<svg id="my-svg" width="100%" xmlns="http://www.w3.org/2000/svg" xmlns:xlink="http://www.w3.org/1999/xlink" class="flowchart" style="max-width: 912.015px; background-color: rgb(15, 17, 21);" viewBox="0 0 912.01513671875 857.580810546875" role="graphics-document document" aria-roledescription="flowchart-v2"><style>#my-svg{font-family:"trebuchet ms",verdana,arial,sans-serif;font-size:16px;fill:#ccc;}@keyframes edge-animation-frame{from{stroke-dashoffset:0;}}@keyframes dash{to{stroke-dashoffset:0;}}#my-svg .edge-animation-slow{stroke-dasharray:9,5!important;stroke-dashoffset:900;animation:dash 50s linear infinite;stroke-linecap:round;}#my-svg .edge-animation-fast{stroke-dasharray:9,5!important;stroke-dashoffset:900;animation:dash 20s linear infinite;stroke-linecap:round;}#my-svg .error-icon{fill:#a44141;}#my-svg .error-text{fill:#ddd;stroke:#ddd;}#my-svg .edge-thickness-normal{stroke-width:1px;}#my-svg .edge-thickness-thick{stroke-width:3.5px;}#my-svg .edge-pattern-solid{stroke-dasharray:0;}#my-svg .edge-thickness-invisible{stroke-width:0;fill:none;}#my-svg .edge-pattern-dashed{stroke-dasharray:3;}#my-svg .edge-pattern-dotted{stroke-dasharray:2;}#my-svg .marker{fill:lightgrey;stroke:lightgrey;}#my-svg .marker.cross{stroke:lightgrey;}#my-svg svg{font-family:"trebuchet ms",verdana,arial,sans-serif;font-size:16px;}#my-svg p{margin:0;}#my-svg .label{font-family:"trebuchet ms",verdana,arial,sans-serif;color:#ccc;}#my-svg .cluster-label text{fill:#F9FFFE;}#my-svg .cluster-label span{color:#F9FFFE;}#my-svg .cluster-label span p{background-color:transparent;}#my-svg .label text,#my-svg span{fill:#ccc;color:#ccc;}#my-svg .node rect,#my-svg .node circle,#my-svg .node ellipse,#my-svg .node polygon,#my-svg .node path{fill:#1f2020;stroke:#ccc;stroke-width:1px;}#my-svg .rough-node .label text,#my-svg .node .label text,#my-svg .image-shape .label,#my-svg .icon-shape .label{text-anchor:middle;}#my-svg .node .katex path{fill:#000;stroke:#000;stroke-width:1px;}#my-svg .rough-node .label,#my-svg .node .label,#my-svg .image-shape .label,#my-svg .icon-shape .label{text-align:center;}#my-svg .node.clickable{cursor:pointer;}#my-svg .root .anchor path{fill:lightgrey!important;stroke-width:0;stroke:lightgrey;}#my-svg .arrowheadPath{fill:lightgrey;}#my-svg .edgePath .path{stroke:lightgrey;stroke-width:1px;}#my-svg .flowchart-link{stroke:lightgrey;fill:none;}#my-svg .edgeLabel{background-color:hsl(0, 0%, 34.4117647059%);text-align:center;}#my-svg .edgeLabel p{background-color:hsl(0, 0%, 34.4117647059%);}#my-svg .edgeLabel rect{opacity:0.5;background-color:hsl(0, 0%, 34.4117647059%);fill:hsl(0, 0%, 34.4117647059%);}#my-svg .labelBkg{background-color:rgba(87.75, 87.75, 87.75, 0.5);}#my-svg .cluster rect{fill:hsl(180, 1.5873015873%, 28.3529411765%);stroke:rgba(255, 255, 255, 0.25);stroke-width:1px;}#my-svg .cluster text{fill:#F9FFFE;}#my-svg .cluster span{color:#F9FFFE;}#my-svg div.mermaidTooltip{position:absolute;text-align:center;max-width:200px;padding:2px;font-family:"trebuchet ms",verdana,arial,sans-serif;font-size:12px;background:hsl(20, 1.5873015873%, 12.3529411765%);border:1px solid rgba(255, 255, 255, 0.25);border-radius:2px;pointer-events:none;z-index:100;}#my-svg .flowchartTitleText{text-anchor:middle;font-size:18px;fill:#ccc;}#my-svg rect.text{fill:none;stroke-width:0;}#my-svg .icon-shape,#my-svg .image-shape{background-color:hsl(0, 0%, 34.4117647059%);text-align:center;}#my-svg .icon-shape p,#my-svg .image-shape p{background-color:hsl(0, 0%, 34.4117647059%);padding:2px;}#my-svg .icon-shape .label rect,#my-svg .image-shape .label rect{opacity:0.5;background-color:hsl(0, 0%, 34.4117647059%);fill:hsl(0, 0%, 34.4117647059%);}#my-svg .label-icon{display:inline-block;height:1em;overflow:visible;vertical-align:-0.125em;}#my-svg .node .label-icon path{fill:currentColor;stroke:revert;stroke-width:revert;}#my-svg .node .neo-node{stroke:#ccc;}#my-svg [data-look="neo"].node rect,#my-svg [data-look="neo"].cluster rect,#my-svg [data-look="neo"].node polygon{stroke:url(#my-svg-gradient);filter:drop-shadow( 1px 2px 2px rgba(185,185,185,1));}#my-svg [data-look="neo"].node path{stroke:url(#my-svg-gradient);stroke-width:1px;}#my-svg [data-look="neo"].node .outer-path{filter:drop-shadow( 1px 2px 2px rgba(185,185,185,1));}#my-svg [data-look="neo"].node .neo-line path{stroke:#ccc;filter:none;}#my-svg [data-look="neo"].node circle{stroke:url(#my-svg-gradient);filter:drop-shadow( 1px 2px 2px rgba(185,185,185,1));}#my-svg [data-look="neo"].node circle .state-start{fill:#000000;}#my-svg [data-look="neo"].icon-shape .icon{fill:url(#my-svg-gradient);filter:drop-shadow( 1px 2px 2px rgba(185,185,185,1));}#my-svg [data-look="neo"].icon-shape .icon-neo path{stroke:url(#my-svg-gradient);filter:drop-shadow( 1px 2px 2px rgba(185,185,185,1));}#my-svg :root{--mermaid-font-family:"trebuchet ms",verdana,arial,sans-serif;}</style><g><marker id="my-svg_flowchart-v2-pointEnd" class="marker flowchart-v2" viewBox="0 0 10 10" refX="5" refY="5" markerUnits="userSpaceOnUse" markerWidth="8" markerHeight="8" orient="auto"><path d="M 0 0 L 10 5 L 0 10 z" class="arrowMarkerPath" style="stroke-width: 1; stroke-dasharray: 1, 0;"/></marker><marker id="my-svg_flowchart-v2-pointStart" class="marker flowchart-v2" viewBox="0 0 10 10" refX="4.5" refY="5" markerUnits="userSpaceOnUse" markerWidth="8" markerHeight="8" orient="auto"><path d="M 0 5 L 10 10 L 10 0 z" class="arrowMarkerPath" style="stroke-width: 1; stroke-dasharray: 1, 0;"/></marker><marker id="my-svg_flowchart-v2-pointEnd-margin" class="marker flowchart-v2" viewBox="0 0 11.5 14" refX="11.5" refY="7" markerUnits="userSpaceOnUse" markerWidth="10.5" markerHeight="14" orient="auto"><path d="M 0 0 L 11.5 7 L 0 14 z" class="arrowMarkerPath" style="stroke-width: 0; stroke-dasharray: 1, 0;"/></marker><marker id="my-svg_flowchart-v2-pointStart-margin" class="marker flowchart-v2" viewBox="0 0 11.5 14" refX="1" refY="7" markerUnits="userSpaceOnUse" markerWidth="11.5" markerHeight="14" orient="auto"><polygon points="0,7 11.5,14 11.5,0" class="arrowMarkerPath" style="stroke-width: 0; stroke-dasharray: 1, 0;"/></marker><marker id="my-svg_flowchart-v2-circleEnd" class="marker flowchart-v2" viewBox="0 0 10 10" refX="11" refY="5" markerUnits="userSpaceOnUse" markerWidth="11" markerHeight="11" orient="auto"><circle cx="5" cy="5" r="5" class="arrowMarkerPath" style="stroke-width: 1; stroke-dasharray: 1, 0;"/></marker><marker id="my-svg_flowchart-v2-circleStart" class="marker flowchart-v2" viewBox="0 0 10 10" refX="-1" refY="5" markerUnits="userSpaceOnUse" markerWidth="11" markerHeight="11" orient="auto"><circle cx="5" cy="5" r="5" class="arrowMarkerPath" style="stroke-width: 1; stroke-dasharray: 1, 0;"/></marker><marker id="my-svg_flowchart-v2-circleEnd-margin" class="marker flowchart-v2" viewBox="0 0 10 10" refY="5" refX="12.25" markerUnits="userSpaceOnUse" markerWidth="14" markerHeight="14" orient="auto"><circle cx="5" cy="5" r="5" class="arrowMarkerPath" style="stroke-width: 0; stroke-dasharray: 1, 0;"/></marker><marker id="my-svg_flowchart-v2-circleStart-margin" class="marker flowchart-v2" viewBox="0 0 10 10" refX="-2" refY="5" markerUnits="userSpaceOnUse" markerWidth="14" markerHeight="14" orient="auto"><circle cx="5" cy="5" r="5" class="arrowMarkerPath" style="stroke-width: 0; stroke-dasharray: 1, 0;"/></marker><marker id="my-svg_flowchart-v2-crossEnd" class="marker cross flowchart-v2" viewBox="0 0 11 11" refX="12" refY="5.2" markerUnits="userSpaceOnUse" markerWidth="11" markerHeight="11" orient="auto"><path d="M 1,1 l 9,9 M 10,1 l -9,9" class="arrowMarkerPath" style="stroke-width: 2; stroke-dasharray: 1, 0;"/></marker><marker id="my-svg_flowchart-v2-crossStart" class="marker cross flowchart-v2" viewBox="0 0 11 11" refX="-1" refY="5.2" markerUnits="userSpaceOnUse" markerWidth="11" markerHeight="11" orient="auto"><path d="M 1,1 l 9,9 M 10,1 l -9,9" class="arrowMarkerPath" style="stroke-width: 2; stroke-dasharray: 1, 0;"/></marker><marker id="my-svg_flowchart-v2-crossEnd-margin" class="marker cross flowchart-v2" viewBox="0 0 15 15" refX="17.7" refY="7.5" markerUnits="userSpaceOnUse" markerWidth="12" markerHeight="12" orient="auto"><path d="M 1,1 L 14,14 M 1,14 L 14,1" class="arrowMarkerPath" style="stroke-width: 2.5;"/></marker><marker id="my-svg_flowchart-v2-crossStart-margin" class="marker cross flowchart-v2" viewBox="0 0 15 15" refX="-3.5" refY="7.5" markerUnits="userSpaceOnUse" markerWidth="12" markerHeight="12" orient="auto"><path d="M 1,1 L 14,14 M 1,14 L 14,1" class="arrowMarkerPath" style="stroke-width: 2.5; stroke-dasharray: 1, 0;"/></marker><g class="root"><g class="clusters"><g class="cluster" id="my-svg-HOST" data-look="classic"><rect style="" x="8" y="8" width="653.05078125" height="841.5808029174805"/><g class="cluster-label" transform="translate(204.212890625, 8)"><foreignObject width="260.625" height="24"><div xmlns="http://www.w3.org/1999/xhtml" style="display: table-cell; white-space: nowrap; line-height: 1.5;"><span class="nodeLabel"><p>«device» máquina do desenvolvedor</p></span></div></foreignObject></g></g><g class="cluster" id="my-svg-ENGINE" data-look="classic"><rect style="" x="28" y="217.3642349243164" width="613.05078125" height="607.2165679931641"/><g class="cluster-label" transform="translate(190.439453125, 217.3642349243164)"><foreignObject width="288.171875" height="24"><div xmlns="http://www.w3.org/1999/xhtml" style="display: table-cell; white-space: nowrap; line-height: 1.5;"><span class="nodeLabel"><p>«execution environment» Docker Engine</p></span></div></foreignObject></g></g><g class="cluster" id="my-svg-REDE" data-look="classic"><rect style="" x="277.546875" y="242.3642349243164" width="343.50390625" height="557.2165679931641"/><g class="cluster-label" transform="translate(355.916015625, 242.3642349243164)"><foreignObject width="186.765625" height="24"><div xmlns="http://www.w3.org/1999/xhtml" style="display: table-cell; white-space: nowrap; line-height: 1.5;"><span class="nodeLabel"><p>rede do Compose (bridge)</p></span></div></foreignObject></g></g></g><g class="edgePaths"><path d="M453.043,143.364L453.043,149.531C453.043,155.698,453.043,168.031,453.043,180.364C453.043,192.698,453.043,205.031,453.043,215.364C453.043,225.698,453.043,234.031,453.043,241.698C453.043,249.364,453.043,256.364,453.043,259.864L453.043,263.364" id="my-svg-L_D_TR_0" class="edge-thickness-normal edge-pattern-solid edge-thickness-normal edge-pattern-solid flowchart-link" style=";" data-edge="true" data-et="edge" data-id="L_D_TR_0" data-points="W3sieCI6NDUzLjA0Mjk2ODc1LCJ5IjoxNDMuMzY0MjM0OTI0MzE2NH0seyJ4Ijo0NTMuMDQyOTY4NzUsInkiOjE4MC4zNjQyMzQ5MjQzMTY0fSx7IngiOjQ1My4wNDI5Njg3NSwieSI6MjE3LjM2NDIzNDkyNDMxNjR9LHsieCI6NDUzLjA0Mjk2ODc1LCJ5IjoyNDIuMzY0MjM0OTI0MzE2NH0seyJ4Ijo0NTMuMDQyOTY4NzUsInkiOjI2Ny4zNjQyMzQ5MjQzMTY0fV0=" data-look="classic" marker-end="url(#my-svg_flowchart-v2-pointEnd)"/><path d="M453.043,369.364L453.043,375.531C453.043,381.698,453.043,394.031,418.591,411.97C384.139,429.91,315.236,453.456,280.784,465.229L246.332,477.002" id="my-svg-L_TR_V_0" class="edge-thickness-normal edge-pattern-solid edge-thickness-normal edge-pattern-solid flowchart-link" style=";" data-edge="true" data-et="edge" data-id="L_TR_V_0" data-points="W3sieCI6NDUzLjA0Mjk2ODc1LCJ5IjozNjkuMzY0MjM0OTI0MzE2NH0seyJ4Ijo0NTMuMDQyOTY4NzUsInkiOjQwNi4zNjQyMzQ5MjQzMTY0fSx7IngiOjI0Mi41NDY4NzUsInkiOjQ3OC4yOTUwODYxMDkxMDg5fV0=" data-look="classic" marker-end="url(#my-svg_flowchart-v2-pointEnd)"/><path d="M242.547,547.903L267.02,558.516C291.493,569.129,340.44,590.355,368.051,606.553C395.661,622.752,401.936,633.922,405.073,639.508L408.21,645.093" id="my-svg-L_V_AP_0" class="edge-thickness-normal edge-pattern-solid edge-thickness-normal edge-pattern-solid flowchart-link" style=";" data-edge="true" data-et="edge" data-id="L_V_AP_0" data-points="W3sieCI6MjQyLjU0Njg3NSwieSI6NTQ3LjkwMzEyNDY4MjY5NzR9LHsieCI6Mzg5LjM4NjcxODc1LCJ5Ijo2MTEuNTgwODAyOTE3NDgwNX0seyJ4Ijo0MTAuMTY4ODY3MTg3NSwieSI6NjQ4LjU4MDgwMjkxNzQ4MDV9XQ==" data-look="classic" marker-end="url(#my-svg_flowchart-v2-pointEnd)"/><path d="M743.841,528.973L703.488,542.741C663.135,556.509,582.429,584.045,538.939,603.398C495.448,622.752,489.174,633.922,486.037,639.508L482.899,645.093" id="my-svg-L_NAV_AP_0" class="edge-thickness-normal edge-pattern-solid edge-thickness-normal edge-pattern-solid flowchart-link" style=";" data-edge="true" data-et="edge" data-id="L_NAV_AP_0" data-points="W3sieCI6NzQzLjg0MTEyNzU3NjQ5NDIsInkiOjUyOC45NzI1MTg5MjA4OTg0fSx7IngiOjUwMS43MjI2NTYyNSwieSI6NjExLjU4MDgwMjkxNzQ4MDV9LHsieCI6NDgwLjk0MDUwNzgxMjUsInkiOjY0OC41ODA4MDI5MTc0ODA1fV0=" data-look="classic" marker-end="url(#my-svg_flowchart-v2-pointEnd)"/></g><g class="edgeLabels"><g class="edgeLabel" transform="translate(453.04296875, 180.3642349243164)"><g class="label" data-id="L_D_TR_0" transform="translate(-51.140625, -12)"><foreignObject width="102.28125" height="24"><div xmlns="http://www.w3.org/1999/xhtml" class="labelBkg" style="display: table-cell; white-space: nowrap; line-height: 1.5; max-width: 200px; text-align: center;"><span class="edgeLabel"><p>bind mount :ro</p></span></div></foreignObject></g></g><g class="edgeLabel" transform="translate(453.04296875, 406.3642349243164)"><g class="label" data-id="L_TR_V_0" transform="translate(-23.5625, -12)"><foreignObject width="47.125" height="24"><div xmlns="http://www.w3.org/1999/xhtml" class="labelBkg" style="display: table-cell; white-space: nowrap; line-height: 1.5; max-width: 200px; text-align: center;"><span class="edgeLabel"><p>escrita</p></span></div></foreignObject></g></g><g class="edgeLabel" transform="translate(335.43367, 588.18385)"><g class="label" data-id="L_V_AP_0" transform="translate(-38.6796875, -12)"><foreignObject width="77.359375" height="24"><div xmlns="http://www.w3.org/1999/xhtml" class="labelBkg" style="display: table-cell; white-space: nowrap; line-height: 1.5; max-width: 200px; text-align: center;"><span class="edgeLabel"><p>leitura (:ro)</p></span></div></foreignObject></g></g><g class="edgeLabel" transform="translate(602.70009, 577.12836)"><g class="label" data-id="L_NAV_AP_0" transform="translate(-53.65625, -12)"><foreignObject width="107.3125" height="24"><div xmlns="http://www.w3.org/1999/xhtml" class="labelBkg" style="display: table-cell; white-space: nowrap; line-height: 1.5; max-width: 200px; text-align: center;"><span class="edgeLabel"><p>HTTP tcp:8000</p></span></div></foreignObject></g></g></g><g class="nodes"><g class="node default" id="my-svg-flowchart-D-0" data-look="classic" transform="translate(453.04296875, 88.1821174621582)"><path d="M0,15.788079775229146 a107.1171875,15.788079775229146 0,0,0 214.234375,0 a107.1171875,15.788079775229146 0,0,0 -214.234375,0 l0,78.78807977522915 a107.1171875,15.788079775229146 0,0,0 214.234375,0 l0,-78.78807977522915" class="basic label-container outer-path" style="" transform="translate(-107.1171875, -55.18211966284372)"/><g class="label" style="" transform="translate(-99.6171875, -14)"><rect/><foreignObject width="199.234375" height="48"><div xmlns="http://www.w3.org/1999/xhtml" style="display: table-cell; white-space: nowrap; line-height: 1.5; max-width: 200px; text-align: center;"><span class="nodeLabel"><p>«artifact» dados/dataset.csv<br />no disco do host</p></span></div></foreignObject></g></g><g class="node default" id="my-svg-flowchart-TR-1" data-look="classic" transform="translate(453.04296875, 318.3642349243164)"><rect class="basic label-container" style="" x="-94.046875" y="-51" width="188.09375" height="102"/><g class="label" style="" transform="translate(-64.046875, -36)"><rect/><foreignObject width="128.09375" height="72"><div xmlns="http://www.w3.org/1999/xhtml" style="display: table-cell; white-space: nowrap; line-height: 1.5; max-width: 200px; text-align: center;"><span class="nodeLabel"><p>«container» treino<br />python:3.12-slim<br />job, sem porta</p></span></div></foreignObject></g></g><g class="node default" id="my-svg-flowchart-AP-2" data-look="classic" transform="translate(445.5546875, 711.5808029174805)"><rect class="basic label-container" style="" x="-130" y="-63" width="260" height="126"/><g class="label" style="" transform="translate(-100, -48)"><rect/><foreignObject width="200" height="96"><div xmlns="http://www.w3.org/1999/xhtml" style="display: table; white-space: break-spaces; line-height: 1.5; max-width: 200px; text-align: center; width: 200px;"><span class="nodeLabel"><p>«container» api<br />python:3.12-slim + gunicorn<br />:8000 → publicada em 8000</p></span></div></foreignObject></g></g><g class="node default" id="my-svg-flowchart-V-3" data-look="classic" transform="translate(152.7734375, 508.97251892089844)"><path d="M0,14.738853829972808 a89.7734375,14.738853829972808 0,0,0 179.546875,0 a89.7734375,14.738853829972808 0,0,0 -179.546875,0 l0,101.73885382997281 a89.7734375,14.738853829972808 0,0,0 179.546875,0 l0,-101.73885382997281" class="basic label-container outer-path" style="fill:#f7a93b !important;stroke:#b8761f !important" transform="translate(-89.7734375, -65.60828074495922)"/><g class="label" style="color:#1a1205 !important" transform="translate(-82.2734375, -26)"><rect/><foreignObject width="164.546875" height="72"><div style="color: rgb(26, 18, 5) !important; display: table-cell; white-space: nowrap; line-height: 1.5; max-width: 200px; text-align: center;" xmlns="http://www.w3.org/1999/xhtml"><span style="color:#1a1205 !important" class="nodeLabel"><p>«volume» artefatos<br />«artifact» modelo.joblib<br />«artifact» metricas.json</p></span></div></foreignObject></g></g><g class="node default" id="my-svg-flowchart-NAV-4" data-look="classic" transform="translate(800.0329513549805, 508.97251892089844)"><g class="basic label-container outer-path"><path d="M-84.4921875 -19.5 C-47.67545565652755 -19.5, -10.858723813055093 -19.5, 84.4921875 -19.5 C84.4921875 -19.5, 84.4921875 -19.5, 84.4921875 -19.5 C84.88125600498657 -19.487523330320986, 85.27032450997314 -19.47504666064197, 85.7415567896239 -19.45993515863156 C86.0627360844424 -19.428951378335032, 86.3839153792609 -19.39796759803851, 86.98579215284786 -19.3399052695533 C87.32293009610959 -19.285399421430544, 87.6600680393713 -19.23089357330779, 88.21978075967675 -19.140403561325776 C88.67574128422412 -19.03633354701833, 89.13170180877148 -18.932263532710884, 89.43845188623538 -18.862249829261074 C89.68038257784144 -18.790446069912512, 89.9223132694475 -18.718642310563947, 90.6367977514606 -18.50658706670804 C90.94069899843178 -18.39474859859031, 91.24460024540298 -18.282910130472583, 91.8098940951478 -18.074876768247425 C92.17820936046593 -17.911834525975245, 92.54652462578406 -17.748792283703064, 92.95292041279238 -17.568892924097174 C93.3523044525643 -17.36053452636585, 93.75168849233623 -17.152176128634526, 94.06117976407678 -16.990714730406097 C94.34224628349776 -16.820330554602894, 94.62331280291873 -16.64994637879969, 95.1301180736057 -16.342718045390892 C95.3537708437369 -16.186707554719742, 95.5774236138681 -16.030697064048592, 96.15534284457871 -15.627565626425154 C96.45076586355788 -15.391973630325968, 96.74618888253704 -15.156381634226781, 97.13264120850187 -14.848196188198123 C97.44154980143705 -14.567653577367876, 97.75045839437225 -14.28711096653763, 98.05799723676799 -14.007812326905688 C98.3893566360611 -13.665656542022932, 98.72071603535419 -13.323500757140174, 98.92760844296865 -13.10986736009568 C99.19249836370459 -12.798712586535771, 99.45738828444051 -12.487557812975862, 99.73790140812658 -12.158051136245305 C99.91354004255618 -11.9227113671184, 100.0891786769858 -11.687371597991492, 100.48554646464063 -11.156274872382312 C100.65808210220443 -10.891213800778493, 100.83061773976824 -10.626152729174676, 101.16747137860425 -10.108655082055241 C101.393920823647 -9.706571161889045, 101.62037026868974 -9.304487241722848, 101.7808739742735 -9.019496659696287 C101.90935583560005 -8.752701325580281, 102.03783769692659 -8.485905991464277, 102.32323364880834 -7.893275190886684 C102.47597859259372 -7.515992226614209, 102.6287235363791 -7.1387092623417345, 102.79232172997033 -6.734618561215508 C102.93289287143537 -6.311240680092638, 103.0734640129004 -5.887862798969767, 103.18621063421489 -5.548287939305138 C103.268115788317 -5.2359480887954355, 103.35002094241912 -4.923608238285733, 103.50328178754556 -4.339158212148133 C103.56190512517342 -4.038139763475808, 103.6205284628013 -3.7371213148034825, 103.74223227658177 -3.1121979531509023 C103.79465042169629 -2.7056531707762694, 103.8470685668108 -2.299108388401637, 103.90208020250937 -1.872449005199798 C103.92592482810183 -1.501049714561885, 103.94976945369429 -1.1296504239239722, 103.98216871591342 -0.6250057626472757 C103.98216871591342 -0.15886591957834845, 103.98216871591342 0.3072739234905788, 103.98216871591342 0.625005762647271 C103.95254756006179 1.0863791748030927, 103.92292640421016 1.5477525869589144, 103.90208020250937 1.8724490051997846 C103.84500248949925 2.3151324760369487, 103.78792477648913 2.7578159468741132, 103.74223227658177 3.1121979531508885 C103.67088638311806 3.4785440371271785, 103.59954048965433 3.844890121103468, 103.50328178754556 4.339158212148129 C103.38040467910997 4.807741881888732, 103.25752757067437 5.276325551629335, 103.18621063421489 5.548287939305125 C103.06607566079583 5.910115338334676, 102.94594068737679 6.271942737364228, 102.79232172997033 6.734618561215495 C102.68790056475623 6.992540858140177, 102.58347939954216 7.250463155064859, 102.32323364880834 7.893275190886679 C102.119840304398 8.315625822475177, 101.91644695998764 8.737976454063675, 101.7808739742735 9.019496659696284 C101.54151821548713 9.44449704682027, 101.30216245670077 9.869497433944256, 101.16747137860425 10.108655082055236 C100.92422546179034 10.482346130955817, 100.68097954497644 10.856037179856395, 100.48554646464065 11.156274872382301 C100.27910450023592 11.432888297434783, 100.07266253583118 11.709501722487264, 99.73790140812659 12.158051136245302 C99.57458660089975 12.34989000168974, 99.4112717936729 12.541728867134179, 98.92760844296866 13.10986736009567 C98.67256922751598 13.373216289159569, 98.4175300120633 13.636565218223467, 98.05799723676799 14.007812326905684 C97.79427464614294 14.24731820599398, 97.53055205551789 14.486824085082274, 97.1326412085019 14.848196188198111 C96.75205568900633 15.151703012189806, 96.37147016951077 15.455209836181501, 96.15534284457871 15.627565626425152 C95.84176026205148 15.846307261224943, 95.52817767952423 16.065048896024734, 95.1301180736057 16.34271804539089 C94.82409848965928 16.528228915549906, 94.51807890571284 16.71373978570892, 94.06117976407678 16.990714730406093 C93.73703214532983 17.15982233547992, 93.41288452658287 17.328929940553746, 92.95292041279238 17.56889292409717 C92.5256079668838 17.75805146812756, 92.09829552097523 17.947210012157953, 91.8098940951478 18.07487676824742 C91.56783967574542 18.163955032114025, 91.32578525634302 18.253033295980625, 90.63679775146062 18.506587066708033 C90.34069974905425 18.594467399572114, 90.04460174664787 18.682347732436195, 89.43845188623541 18.86224982926107 C89.03717078257549 18.953839622567525, 88.63588967891556 19.04542941587398, 88.21978075967677 19.140403561325773 C87.79113804270385 19.209703191632038, 87.36249532573092 19.279002821938303, 86.98579215284788 19.3399052695533 C86.52090492643218 19.38475238117693, 86.0560177000165 19.429599492800563, 85.7415567896239 19.45993515863156 C85.370612485208 19.47183062047489, 84.9996681807921 19.48372608231822, 84.4921875 19.5 C84.4921875 19.5, 84.4921875 19.5, 84.4921875 19.5 C37.41311406256893 19.5, -9.66595937486214 19.5, -84.4921875 19.5 C-84.90206724794393 19.48685595426597, -85.31194699588788 19.47371190853194, -85.7415567896239 19.45993515863156 C-86.0099050524063 19.434047924456944, -86.27825331518869 19.40816069028233, -86.98579215284786 19.3399052695533 C-87.44563771193533 19.265561005715607, -87.90548327102282 19.191216741877916, -88.21978075967675 19.140403561325773 C-88.59949893890163 19.053735364810386, -88.9792171181265 18.967067168295, -89.43845188623538 18.862249829261074 C-89.84622864781826 18.741223826887175, -90.25400540940115 18.62019782451328, -90.63679775146059 18.506587066708043 C-91.02274437674748 18.364555140950976, -91.40869100203436 18.222523215193906, -91.8098940951478 18.074876768247425 C-92.12681588764286 17.93458489186081, -92.44373768013793 17.794293015474192, -92.95292041279238 17.568892924097174 C-93.32461576974738 17.374979694455988, -93.69631112670238 17.181066464814805, -94.06117976407678 16.990714730406097 C-94.40629290408748 16.781505116821688, -94.75140604409816 16.572295503237278, -95.13011807360569 16.3427180453909 C-95.4638888256789 16.109894017447612, -95.79765957775211 15.877069989504328, -96.15534284457871 15.627565626425156 C-96.47125561475964 15.375633598997737, -96.78716838494059 15.123701571570319, -97.13264120850187 14.848196188198125 C-97.4531429411038 14.5571249946602, -97.77364467370575 14.266053801122274, -98.05799723676797 14.007812326905697 C-98.40230504692836 13.65228624471817, -98.74661285708873 13.296760162530642, -98.92760844296865 13.109867360095677 C-99.16391557048173 12.83228756186233, -99.40022269799483 12.554707763628981, -99.73790140812658 12.158051136245307 C-99.96817962406436 11.849499305665725, -100.19845784000213 11.540947475086144, -100.48554646464063 11.156274872382316 C-100.73780377851041 10.768739897705002, -100.99006109238017 10.381204923027687, -101.16747137860425 10.108655082055249 C-101.4004434041412 9.694989659738692, -101.63341542967815 9.281324237422135, -101.7808739742735 9.019496659696289 C-101.91385285051135 8.74336317789625, -102.0468317267492 8.46722969609621, -102.32323364880834 7.893275190886686 C-102.43148006766747 7.625904443502518, -102.53972648652659 7.35853369611835, -102.79232172997033 6.73461856121551 C-102.8921266762937 6.434021964648223, -102.99193162261706 6.133425368080935, -103.18621063421489 5.5482879393051325 C-103.26635678311925 5.24265593797212, -103.34650293202363 4.9370239366391075, -103.50328178754556 4.339158212148136 C-103.58810278879471 3.9036202976586596, -103.67292379004388 3.4680823831691834, -103.74223227658177 3.112197953150904 C-103.80366095048062 2.6357692888551734, -103.86508962437946 2.1593406245594426, -103.90208020250937 1.872449005199809 C-103.92035627986243 1.5877843482417981, -103.93863235721548 1.303119691283787, -103.98216871591342 0.6250057626472781 C-103.98216871591342 0.37084009133469414, -103.98216871591342 0.11667442002211015, -103.98216871591342 -0.6250057626472687 C-103.96575248125502 -0.8807018683979617, -103.94933624659662 -1.1363979741486547, -103.90208020250937 -1.8724490051997822 C-103.85271450579125 -2.2553196005859695, -103.80334880907316 -2.638190195972157, -103.74223227658177 -3.112197953150895 C-103.67971892925068 -3.4331907794954444, -103.61720558191958 -3.7541836058399936, -103.50328178754556 -4.339158212148126 C-103.38023989908055 -4.808370259557024, -103.25719801061553 -5.277582306965923, -103.18621063421489 -5.548287939305123 C-103.03561291412846 -6.001864277717232, -102.88501519404204 -6.45544061612934, -102.79232172997033 -6.734618561215485 C-102.65494989425602 -7.073929651333574, -102.51757805854173 -7.413240741451664, -102.32323364880834 -7.893275190886676 C-102.19064586459587 -8.168596561728009, -102.05805808038338 -8.44391793256934, -101.7808739742735 -9.019496659696282 C-101.5891227151892 -9.359970437120943, -101.39737145610489 -9.700444214545602, -101.16747137860425 -10.108655082055243 C-100.96943623149336 -10.41289024790045, -100.77140108438248 -10.717125413745656, -100.48554646464063 -11.156274872382308 C-100.27977456462585 -11.431990472196379, -100.07400266461107 -11.707706072010447, -99.73790140812659 -12.158051136245302 C-99.57311911509615 -12.351613794016949, -99.4083368220657 -12.545176451788597, -98.92760844296866 -13.10986736009567 C-98.72182770971928 -13.322352862088056, -98.5160469764699 -13.534838364080441, -98.05799723676799 -14.007812326905677 C-97.81716684800465 -14.226528113957642, -97.57633645924129 -14.445243901009606, -97.1326412085019 -14.848196188198107 C-96.88720862742821 -15.04392214036909, -96.64177604635452 -15.239648092540074, -96.15534284457871 -15.627565626425149 C-95.8749045688452 -15.823187227599561, -95.59446629311167 -16.018808828773974, -95.13011807360571 -16.342718045390885 C-94.89226015332628 -16.48690891447257, -94.65440223304685 -16.631099783554255, -94.06117976407678 -16.99071473040609 C-93.75963323011273 -17.148031364025368, -93.45808669614867 -17.30534799764465, -92.9529204127924 -17.56889292409717 C-92.55364713496667 -17.745639360169655, -92.15437385714092 -17.92238579624214, -91.80989409514781 -18.07487676824742 C-91.5025949295315 -18.18796570183657, -91.19529576391518 -18.301054635425725, -90.63679775146062 -18.506587066708033 C-90.3552622108612 -18.59014533734773, -90.07372667026179 -18.673703607987427, -89.43845188623541 -18.862249829261067 C-88.9923764171481 -18.964063644165773, -88.54630094806078 -19.06587745907048, -88.21978075967677 -19.140403561325773 C-87.81821044502891 -19.205326335573737, -87.41664013038105 -19.2702491098217, -86.98579215284788 -19.3399052695533 C-86.65555297215663 -19.37176304614386, -86.32531379146538 -19.40362082273442, -85.7415567896239 -19.45993515863156 C-85.37682993534575 -19.471631238950504, -85.0121030810676 -19.48332731926945, -84.4921875 -19.5 C-84.4921875 -19.5, -84.4921875 -19.5, -84.4921875 -19.5" stroke="none" stroke-width="0" fill="#1f2020" style=""/><path d="M-84.4921875 -19.5 C-47.39975075916986 -19.5, -10.307314018339724 -19.5, 84.4921875 -19.5 M-84.4921875 -19.5 C-48.79155817998801 -19.5, -13.090928859976017 -19.5, 84.4921875 -19.5 M84.4921875 -19.5 C84.4921875 -19.5, 84.4921875 -19.5, 84.4921875 -19.5 M84.4921875 -19.5 C84.4921875 -19.5, 84.4921875 -19.5, 84.4921875 -19.5 M84.4921875 -19.5 C84.95784527259825 -19.485067261580642, 85.4235030451965 -19.47013452316129, 85.7415567896239 -19.45993515863156 M84.4921875 -19.5 C84.92928551048706 -19.485983117563347, 85.36638352097411 -19.47196623512669, 85.7415567896239 -19.45993515863156 M85.7415567896239 -19.45993515863156 C86.18504690399713 -19.41715220067287, 86.62853701837038 -19.37436924271418, 86.98579215284786 -19.3399052695533 M85.7415567896239 -19.45993515863156 C86.18515205963153 -19.41714205643529, 86.62874732963915 -19.374348954239018, 86.98579215284786 -19.3399052695533 M86.98579215284786 -19.3399052695533 C87.4421250194439 -19.266128910596283, 87.89845788603996 -19.19235255163927, 88.21978075967675 -19.140403561325776 M86.98579215284786 -19.3399052695533 C87.30868914636804 -19.287701787744542, 87.6315861398882 -19.235498305935785, 88.21978075967675 -19.140403561325776 M88.21978075967675 -19.140403561325776 C88.68272069011196 -19.03474054316931, 89.14566062054718 -18.92907752501284, 89.43845188623538 -18.862249829261074 M88.21978075967675 -19.140403561325776 C88.50387531177947 -19.07556083369854, 88.7879698638822 -19.010718106071298, 89.43845188623538 -18.862249829261074 M89.43845188623538 -18.862249829261074 C89.7582237145894 -18.76734322912218, 90.07799554294344 -18.672436628983284, 90.6367977514606 -18.50658706670804 M89.43845188623538 -18.862249829261074 C89.82501995173827 -18.747518456557003, 90.21158801724116 -18.63278708385293, 90.6367977514606 -18.50658706670804 M90.6367977514606 -18.50658706670804 C91.02720505783226 -18.36291356907769, 91.4176123642039 -18.219240071447345, 91.8098940951478 -18.074876768247425 M90.6367977514606 -18.50658706670804 C91.08655016886397 -18.34107401963783, 91.53630258626734 -18.175560972567617, 91.8098940951478 -18.074876768247425 M91.8098940951478 -18.074876768247425 C92.1769744943085 -17.912381164592134, 92.54405489346921 -17.749885560936843, 92.95292041279238 -17.568892924097174 M91.8098940951478 -18.074876768247425 C92.07260496559235 -17.958582458942704, 92.33531583603691 -17.842288149637984, 92.95292041279238 -17.568892924097174 M92.95292041279238 -17.568892924097174 C93.2499603770571 -17.413927365003442, 93.54700034132183 -17.258961805909713, 94.06117976407678 -16.990714730406097 M92.95292041279238 -17.568892924097174 C93.24851809586596 -17.41467980217704, 93.54411577893954 -17.260466680256904, 94.06117976407678 -16.990714730406097 M94.06117976407678 -16.990714730406097 C94.41696889757601 -16.775033266829833, 94.77275803107524 -16.55935180325357, 95.1301180736057 -16.342718045390892 M94.06117976407678 -16.990714730406097 C94.42357729356061 -16.771027218348724, 94.78597482304444 -16.55133970629135, 95.1301180736057 -16.342718045390892 M95.1301180736057 -16.342718045390892 C95.4471367144069 -16.12157956508375, 95.7641553552081 -15.90044108477661, 96.15534284457871 -15.627565626425154 M95.1301180736057 -16.342718045390892 C95.3844377255332 -16.165315665526563, 95.63875737746069 -15.987913285662234, 96.15534284457871 -15.627565626425154 M96.15534284457871 -15.627565626425154 C96.40812176621739 -15.425981163147915, 96.66090068785607 -15.224396699870674, 97.13264120850187 -14.848196188198123 M96.15534284457871 -15.627565626425154 C96.39522539919969 -15.43626567265779, 96.63510795382068 -15.244965718890423, 97.13264120850187 -14.848196188198123 M97.13264120850187 -14.848196188198123 C97.36917681392823 -14.633380809739062, 97.60571241935462 -14.41856543128, 98.05799723676799 -14.007812326905688 M97.13264120850187 -14.848196188198123 C97.35835736574512 -14.64320674631206, 97.58407352298838 -14.438217304425997, 98.05799723676799 -14.007812326905688 M98.05799723676799 -14.007812326905688 C98.26766718193723 -13.791310894295805, 98.47733712710648 -13.57480946168592, 98.92760844296865 -13.10986736009568 M98.05799723676799 -14.007812326905688 C98.30767866477258 -13.749995753264464, 98.55736009277719 -13.49217917962324, 98.92760844296865 -13.10986736009568 M98.92760844296865 -13.10986736009568 C99.22518985147926 -12.760311304797288, 99.52277125998987 -12.410755249498896, 99.73790140812658 -12.158051136245305 M98.92760844296865 -13.10986736009568 C99.08997389765379 -12.919143658166414, 99.25233935233894 -12.728419956237147, 99.73790140812658 -12.158051136245305 M99.73790140812658 -12.158051136245305 C100.00504671726496 -11.800100759438195, 100.27219202640336 -11.442150382631084, 100.48554646464063 -11.156274872382312 M99.73790140812658 -12.158051136245305 C99.9698036978614 -11.84732319473387, 100.2017059875962 -11.536595253222433, 100.48554646464063 -11.156274872382312 M100.48554646464063 -11.156274872382312 C100.74939469442378 -10.750933138265328, 101.01324292420692 -10.345591404148346, 101.16747137860425 -10.108655082055241 M100.48554646464063 -11.156274872382312 C100.7231633064232 -10.791231594348165, 100.96078014820576 -10.426188316314018, 101.16747137860425 -10.108655082055241 M101.16747137860425 -10.108655082055241 C101.37179908448945 -9.745850549832236, 101.57612679037467 -9.383046017609232, 101.7808739742735 -9.019496659696287 M101.16747137860425 -10.108655082055241 C101.35964200504962 -9.76743667541544, 101.55181263149501 -9.426218268775635, 101.7808739742735 -9.019496659696287 M101.7808739742735 -9.019496659696287 C101.98185587958109 -8.602153433001217, 102.18283778488866 -8.184810206306148, 102.32323364880834 -7.893275190886684 M101.7808739742735 -9.019496659696287 C101.93195229384845 -8.70577929654071, 102.0830306134234 -8.392061933385131, 102.32323364880834 -7.893275190886684 M102.32323364880834 -7.893275190886684 C102.47890452111805 -7.508765126590114, 102.63457539342778 -7.124255062293544, 102.79232172997033 -6.734618561215508 M102.32323364880834 -7.893275190886684 C102.50000853331511 -7.456637808445069, 102.67678341782188 -7.020000426003453, 102.79232172997033 -6.734618561215508 M102.79232172997033 -6.734618561215508 C102.92929633471356 -6.322072875668416, 103.06627093945679 -5.909527190121325, 103.18621063421489 -5.548287939305138 M102.79232172997033 -6.734618561215508 C102.89445697842305 -6.427003465917834, 102.99659222687576 -6.119388370620161, 103.18621063421489 -5.548287939305138 M103.18621063421489 -5.548287939305138 C103.26408117807395 -5.2513338062633235, 103.34195172193301 -4.95437967322151, 103.50328178754556 -4.339158212148133 M103.18621063421489 -5.548287939305138 C103.27124507159851 -5.224014775403055, 103.35627950898215 -4.899741611500972, 103.50328178754556 -4.339158212148133 M103.50328178754556 -4.339158212148133 C103.55966311392544 -4.049652017385019, 103.61604444030532 -3.7601458226219044, 103.74223227658177 -3.1121979531509023 M103.50328178754556 -4.339158212148133 C103.55933654022523 -4.051328904314181, 103.6153912929049 -3.7634995964802274, 103.74223227658177 -3.1121979531509023 M103.74223227658177 -3.1121979531509023 C103.80458009849232 -2.6286405583827306, 103.86692792040287 -2.1450831636145593, 103.90208020250937 -1.872449005199798 M103.74223227658177 -3.1121979531509023 C103.80227357318425 -2.646529513197196, 103.86231486978673 -2.1808610732434897, 103.90208020250937 -1.872449005199798 M103.90208020250937 -1.872449005199798 C103.921646061568 -1.567694957084363, 103.94121192062664 -1.262940908968928, 103.98216871591342 -0.6250057626472757 M103.90208020250937 -1.872449005199798 C103.92592537005176 -1.5010412732543257, 103.94977053759413 -1.1296335413088534, 103.98216871591342 -0.6250057626472757 M103.98216871591342 -0.6250057626472757 C103.98216871591342 -0.2545785909506195, 103.98216871591342 0.11584858074603666, 103.98216871591342 0.625005762647271 M103.98216871591342 -0.6250057626472757 C103.98216871591342 -0.2805410922545715, 103.98216871591342 0.06392357813813265, 103.98216871591342 0.625005762647271 M103.98216871591342 0.625005762647271 C103.96603668113511 0.8762752258634654, 103.94990464635681 1.1275446890796599, 103.90208020250937 1.8724490051997846 M103.98216871591342 0.625005762647271 C103.95225169902888 1.0909874492052514, 103.92233468214435 1.5569691357632318, 103.90208020250937 1.8724490051997846 M103.90208020250937 1.8724490051997846 C103.85447123288715 2.241694772135211, 103.80686226326495 2.610940539070638, 103.74223227658177 3.1121979531508885 M103.90208020250937 1.8724490051997846 C103.8454201218783 2.3118934017757953, 103.78876004124726 2.7513377983518055, 103.74223227658177 3.1121979531508885 M103.74223227658177 3.1121979531508885 C103.66364839736897 3.5157095641998595, 103.58506451815617 3.9192211752488304, 103.50328178754556 4.339158212148129 M103.74223227658177 3.1121979531508885 C103.64802131222396 3.5959513436338937, 103.55381034786615 4.079704734116898, 103.50328178754556 4.339158212148129 M103.50328178754556 4.339158212148129 C103.39791100027072 4.740982692015157, 103.2925402129959 5.142807171882184, 103.18621063421489 5.548287939305125 M103.50328178754556 4.339158212148129 C103.3978642339082 4.741161032424177, 103.29244668027083 5.143163852700226, 103.18621063421489 5.548287939305125 M103.18621063421489 5.548287939305125 C103.09303944193489 5.828904725638938, 102.9998682496549 6.10952151197275, 102.79232172997033 6.734618561215495 M103.18621063421489 5.548287939305125 C103.09340633681724 5.82779969671008, 103.00060203941959 6.107311454115033, 102.79232172997033 6.734618561215495 M102.79232172997033 6.734618561215495 C102.67076927203898 7.034855482362818, 102.54921681410764 7.335092403510141, 102.32323364880834 7.893275190886679 M102.79232172997033 6.734618561215495 C102.6562629695267 7.070686330028437, 102.52020420908308 7.406754098841379, 102.32323364880834 7.893275190886679 M102.32323364880834 7.893275190886679 C102.17406462626433 8.203027857905097, 102.02489560372032 8.512780524923516, 101.7808739742735 9.019496659696284 M102.32323364880834 7.893275190886679 C102.20799757285934 8.132565368251798, 102.09276149691036 8.371855545616919, 101.7808739742735 9.019496659696284 M101.7808739742735 9.019496659696284 C101.58168873510178 9.373170221538267, 101.38250349593005 9.72684378338025, 101.16747137860425 10.108655082055236 M101.7808739742735 9.019496659696284 C101.65034713003828 9.251260288912121, 101.51982028580306 9.483023918127959, 101.16747137860425 10.108655082055236 M101.16747137860425 10.108655082055236 C100.90922318270286 10.505393660310194, 100.65097498680147 10.902132238565152, 100.48554646464065 11.156274872382301 M101.16747137860425 10.108655082055236 C100.96345926298612 10.422072476568331, 100.75944714736801 10.735489871081427, 100.48554646464065 11.156274872382301 M100.48554646464065 11.156274872382301 C100.28840037817267 11.420432667871433, 100.0912542917047 11.684590463360562, 99.73790140812659 12.158051136245302 M100.48554646464065 11.156274872382301 C100.23941232808062 11.486072192091608, 99.99327819152059 11.815869511800916, 99.73790140812659 12.158051136245302 M99.73790140812659 12.158051136245302 C99.46875520354578 12.474205582998811, 99.19960899896498 12.790360029752321, 98.92760844296866 13.10986736009567 M99.73790140812659 12.158051136245302 C99.50590663294604 12.430565400049057, 99.27391185776547 12.703079663852812, 98.92760844296866 13.10986736009567 M98.92760844296866 13.10986736009567 C98.67623186567836 13.369434314548727, 98.42485528838806 13.629001269001783, 98.05799723676799 14.007812326905684 M98.92760844296866 13.10986736009567 C98.71287924130215 13.331592890411667, 98.49815003963563 13.553318420727662, 98.05799723676799 14.007812326905684 M98.05799723676799 14.007812326905684 C97.82717215606745 14.217441557900946, 97.59634707536692 14.427070788896208, 97.1326412085019 14.848196188198111 M98.05799723676799 14.007812326905684 C97.84934666937893 14.197303251616939, 97.64069610198986 14.386794176328195, 97.1326412085019 14.848196188198111 M97.1326412085019 14.848196188198111 C96.88582549737565 15.045025149779374, 96.63900978624942 15.241854111360635, 96.15534284457871 15.627565626425152 M97.1326412085019 14.848196188198111 C96.77909606208 15.130139034238105, 96.42555091565809 15.4120818802781, 96.15534284457871 15.627565626425152 M96.15534284457871 15.627565626425152 C95.86294285671976 15.831531200164097, 95.57054286886078 16.03549677390304, 95.1301180736057 16.34271804539089 M96.15534284457871 15.627565626425152 C95.84082118178864 15.846962322964165, 95.52629951899857 16.066359019503178, 95.1301180736057 16.34271804539089 M95.1301180736057 16.34271804539089 C94.87690063436276 16.496219945130807, 94.62368319511981 16.64972184487073, 94.06117976407678 16.990714730406093 M95.1301180736057 16.34271804539089 C94.87976507518184 16.494483504272957, 94.62941207675797 16.646248963155028, 94.06117976407678 16.990714730406093 M94.06117976407678 16.990714730406093 C93.75562516301989 17.15012237006041, 93.450070561963 17.309530009714727, 92.95292041279238 17.56889292409717 M94.06117976407678 16.990714730406093 C93.69450250809123 17.182010019985764, 93.32782525210567 17.37330530956544, 92.95292041279238 17.56889292409717 M92.95292041279238 17.56889292409717 C92.64707717392321 17.70428065342722, 92.34123393505405 17.839668382757264, 91.8098940951478 18.07487676824742 M92.95292041279238 17.56889292409717 C92.54666686697064 17.74872931774919, 92.14041332114891 17.928565711401216, 91.8098940951478 18.07487676824742 M91.8098940951478 18.07487676824742 C91.53417229794721 18.17634493836159, 91.25845050074662 18.277813108475762, 90.63679775146062 18.506587066708033 M91.8098940951478 18.07487676824742 C91.51747155854909 18.182490964840046, 91.22504902195037 18.290105161432667, 90.63679775146062 18.506587066708033 M90.63679775146062 18.506587066708033 C90.2208071053974 18.63005090688014, 89.80481645933418 18.753514747052243, 89.43845188623541 18.86224982926107 M90.63679775146062 18.506587066708033 C90.37431774782229 18.584489754002234, 90.11183774418396 18.66239244129644, 89.43845188623541 18.86224982926107 M89.43845188623541 18.86224982926107 C89.04121069394073 18.952917539161295, 88.64396950164605 19.043585249061515, 88.21978075967677 19.140403561325773 M89.43845188623541 18.86224982926107 C89.08731331612377 18.94239491649574, 88.73617474601213 19.022540003730413, 88.21978075967677 19.140403561325773 M88.21978075967677 19.140403561325773 C87.78833999812827 19.210155557779856, 87.35689923657978 19.27990755423394, 86.98579215284788 19.3399052695533 M88.21978075967677 19.140403561325773 C87.94832147890533 19.184290992642737, 87.67686219813389 19.228178423959697, 86.98579215284788 19.3399052695533 M86.98579215284788 19.3399052695533 C86.70287518363023 19.367197929316287, 86.41995821441259 19.39449058907928, 85.7415567896239 19.45993515863156 M86.98579215284788 19.3399052695533 C86.64953150958497 19.37234392939628, 86.31327086632206 19.40478258923926, 85.7415567896239 19.45993515863156 M85.7415567896239 19.45993515863156 C85.44420378111876 19.4694706908518, 85.14685077261362 19.47900622307204, 84.4921875 19.5 M85.7415567896239 19.45993515863156 C85.43467469856868 19.469776269981946, 85.12779260751348 19.479617381332332, 84.4921875 19.5 M84.4921875 19.5 C84.4921875 19.5, 84.4921875 19.5, 84.4921875 19.5 M84.4921875 19.5 C84.4921875 19.5, 84.4921875 19.5, 84.4921875 19.5 M84.4921875 19.5 C34.76161801801372 19.5, -14.968951463972559 19.5, -84.4921875 19.5 M84.4921875 19.5 C20.769335354558926 19.5, -42.95351679088215 19.5, -84.4921875 19.5 M-84.4921875 19.5 C-84.91464386812052 19.486452646535813, -85.33710023624103 19.472905293071623, -85.7415567896239 19.45993515863156 M-84.4921875 19.5 C-84.8692297208196 19.487908989846478, -85.2462719416392 19.475817979692955, -85.7415567896239 19.45993515863156 M-85.7415567896239 19.45993515863156 C-86.09128452972753 19.426197344152907, -86.44101226983116 19.39245952967425, -86.98579215284786 19.3399052695533 M-85.7415567896239 19.45993515863156 C-86.1210809267333 19.42332292156917, -86.50060506384271 19.38671068450678, -86.98579215284786 19.3399052695533 M-86.98579215284786 19.3399052695533 C-87.4412284673674 19.26627385818315, -87.89666478188693 19.192642446813, -88.21978075967675 19.140403561325773 M-86.98579215284786 19.3399052695533 C-87.27464125569409 19.293206386663368, -87.56349035854034 19.246507503773437, -88.21978075967675 19.140403561325773 M-88.21978075967675 19.140403561325773 C-88.49659071046753 19.07722349641152, -88.77340066125831 19.014043431497267, -89.43845188623538 18.862249829261074 M-88.21978075967675 19.140403561325773 C-88.47557105668527 19.08202109522126, -88.73136135369379 19.02363862911675, -89.43845188623538 18.862249829261074 M-89.43845188623538 18.862249829261074 C-89.86189745247452 18.736573407912434, -90.28534301871366 18.61089698656379, -90.63679775146059 18.506587066708043 M-89.43845188623538 18.862249829261074 C-89.85698051918756 18.738032727902496, -90.27550915213972 18.613815626543918, -90.63679775146059 18.506587066708043 M-90.63679775146059 18.506587066708043 C-91.04022064687578 18.358123711994885, -91.44364354229099 18.20966035728173, -91.8098940951478 18.074876768247425 M-90.63679775146059 18.506587066708043 C-90.99828826136432 18.37355521748183, -91.35977877126804 18.240523368255616, -91.8098940951478 18.074876768247425 M-91.8098940951478 18.074876768247425 C-92.2156943989885 17.895241011375457, -92.62149470282922 17.71560525450349, -92.95292041279238 17.568892924097174 M-91.8098940951478 18.074876768247425 C-92.2032917139834 17.90073131211464, -92.596689332819 17.726585855981856, -92.95292041279238 17.568892924097174 M-92.95292041279238 17.568892924097174 C-93.25911035950391 17.409153825021793, -93.56530030621542 17.249414725946416, -94.06117976407678 16.990714730406097 M-92.95292041279238 17.568892924097174 C-93.28812666373089 17.394016037692403, -93.6233329146694 17.219139151287635, -94.06117976407678 16.990714730406097 M-94.06117976407678 16.990714730406097 C-94.42122150999329 16.77245530819136, -94.78126325590978 16.554195885976622, -95.13011807360569 16.3427180453909 M-94.06117976407678 16.990714730406097 C-94.44948227348435 16.75532346728439, -94.83778478289193 16.51993220416269, -95.13011807360569 16.3427180453909 M-95.13011807360569 16.3427180453909 C-95.33754839698123 16.198023631318094, -95.54497872035678 16.053329217245285, -96.15534284457871 15.627565626425156 M-95.13011807360569 16.3427180453909 C-95.52462334041894 16.067528249119732, -95.91912860723218 15.792338452848565, -96.15534284457871 15.627565626425156 M-96.15534284457871 15.627565626425156 C-96.5151199447367 15.340652963119883, -96.87489704489468 15.05374029981461, -97.13264120850187 14.848196188198125 M-96.15534284457871 15.627565626425156 C-96.39470690647165 15.436679156810731, -96.6340709683646 15.245792687196305, -97.13264120850187 14.848196188198125 M-97.13264120850187 14.848196188198125 C-97.33149361534112 14.667603693653088, -97.53034602218037 14.487011199108052, -98.05799723676797 14.007812326905697 M-97.13264120850187 14.848196188198125 C-97.4538117027211 14.556517643053832, -97.77498219694034 14.26483909790954, -98.05799723676797 14.007812326905697 M-98.05799723676797 14.007812326905697 C-98.39321682671601 13.661670578244172, -98.72843641666405 13.315528829582647, -98.92760844296865 13.109867360095677 M-98.05799723676797 14.007812326905697 C-98.36183192404849 13.694078066996816, -98.665666611329 13.380343807087938, -98.92760844296865 13.109867360095677 M-98.92760844296865 13.109867360095677 C-99.20409648558693 12.78508877262093, -99.48058452820521 12.460310185146186, -99.73790140812658 12.158051136245307 M-98.92760844296865 13.109867360095677 C-99.22712138137187 12.75804241987825, -99.52663431977511 12.406217479660821, -99.73790140812658 12.158051136245307 M-99.73790140812658 12.158051136245307 C-99.98100789789987 11.832310587405917, -100.22411438767318 11.506570038566528, -100.48554646464063 11.156274872382316 M-99.73790140812658 12.158051136245307 C-99.92225407062385 11.911035363372015, -100.10660673312113 11.664019590498723, -100.48554646464063 11.156274872382316 M-100.48554646464063 11.156274872382316 C-100.67284117515112 10.868539901366377, -100.8601358856616 10.580804930350439, -101.16747137860425 10.108655082055249 M-100.48554646464063 11.156274872382316 C-100.66778152864431 10.876312877106162, -100.85001659264799 10.59635088183001, -101.16747137860425 10.108655082055249 M-101.16747137860425 10.108655082055249 C-101.29802593346372 9.876842249820049, -101.42858048832318 9.64502941758485, -101.7808739742735 9.019496659696289 M-101.16747137860425 10.108655082055249 C-101.37152546543308 9.746336388173765, -101.57557955226193 9.38401769429228, -101.7808739742735 9.019496659696289 M-101.7808739742735 9.019496659696289 C-101.96813184924812 8.63065167563481, -102.15538972422276 8.241806691573332, -102.32323364880834 7.893275190886686 M-101.7808739742735 9.019496659696289 C-101.91377119122602 8.743532745149478, -102.04666840817853 8.46756883060267, -102.32323364880834 7.893275190886686 M-102.32323364880834 7.893275190886686 C-102.4894721092644 7.4826629795582225, -102.65571056972047 7.072050768229758, -102.79232172997033 6.73461856121551 M-102.32323364880834 7.893275190886686 C-102.50926321400044 7.433778568225248, -102.69529277919253 6.974281945563812, -102.79232172997033 6.73461856121551 M-102.79232172997033 6.73461856121551 C-102.9176480559962 6.357155635263923, -103.04297438202207 5.979692709312336, -103.18621063421489 5.5482879393051325 M-102.79232172997033 6.73461856121551 C-102.87803061734394 6.476477048302911, -102.96373950471754 6.218335535390311, -103.18621063421489 5.5482879393051325 M-103.18621063421489 5.5482879393051325 C-103.29464288904644 5.134788756795866, -103.40307514387801 4.721289574286601, -103.50328178754556 4.339158212148136 M-103.18621063421489 5.5482879393051325 C-103.27558681890355 5.207457811203784, -103.36496300359221 4.866627683102434, -103.50328178754556 4.339158212148136 M-103.50328178754556 4.339158212148136 C-103.5674582507925 4.009625637075437, -103.63163471403942 3.680093062002737, -103.74223227658177 3.112197953150904 M-103.50328178754556 4.339158212148136 C-103.58285695631038 3.9305565387586716, -103.6624321250752 3.5219548653692074, -103.74223227658177 3.112197953150904 M-103.74223227658177 3.112197953150904 C-103.80143303376829 2.653048570924082, -103.86063379095481 2.1938991886972596, -103.90208020250937 1.872449005199809 M-103.74223227658177 3.112197953150904 C-103.78451328961037 2.784274765431439, -103.82679430263899 2.4563515777119735, -103.90208020250937 1.872449005199809 M-103.90208020250937 1.872449005199809 C-103.91834970878367 1.6190383124685213, -103.93461921505796 1.3656276197372335, -103.98216871591342 0.6250057626472781 M-103.90208020250937 1.872449005199809 C-103.92003870759272 1.5927307926821206, -103.93799721267608 1.3130125801644321, -103.98216871591342 0.6250057626472781 M-103.98216871591342 0.6250057626472781 C-103.98216871591342 0.23393350096835347, -103.98216871591342 -0.1571387607105712, -103.98216871591342 -0.6250057626472687 M-103.98216871591342 0.6250057626472781 C-103.98216871591342 0.361393199715653, -103.98216871591342 0.09778063678402782, -103.98216871591342 -0.6250057626472687 M-103.98216871591342 -0.6250057626472687 C-103.9604132868846 -0.9638641304372794, -103.93865785785579 -1.30272249822729, -103.90208020250937 -1.8724490051997822 M-103.98216871591342 -0.6250057626472687 C-103.95444086641804 -1.0568894000551052, -103.92671301692265 -1.4887730374629418, -103.90208020250937 -1.8724490051997822 M-103.90208020250937 -1.8724490051997822 C-103.84403372787465 -2.32264599989374, -103.78598725323992 -2.7728429945876973, -103.74223227658177 -3.112197953150895 M-103.90208020250937 -1.8724490051997822 C-103.86011439516983 -2.197927519839183, -103.81814858783031 -2.523406034478584, -103.74223227658177 -3.112197953150895 M-103.74223227658177 -3.112197953150895 C-103.65518390355723 -3.5591729509518015, -103.56813553053267 -4.006147948752708, -103.50328178754556 -4.339158212148126 M-103.74223227658177 -3.112197953150895 C-103.66682891773293 -3.4993782643341547, -103.5914255588841 -3.886558575517414, -103.50328178754556 -4.339158212148126 M-103.50328178754556 -4.339158212148126 C-103.38081855921678 -4.8061635776646865, -103.258355330888 -5.273168943181247, -103.18621063421489 -5.548287939305123 M-103.50328178754556 -4.339158212148126 C-103.40192978148139 -4.7256573375081175, -103.30057777541721 -5.112156462868109, -103.18621063421489 -5.548287939305123 M-103.18621063421489 -5.548287939305123 C-103.08566770962858 -5.85110720881952, -102.98512478504226 -6.153926478333917, -102.79232172997033 -6.734618561215485 M-103.18621063421489 -5.548287939305123 C-103.03119539988019 -6.015169126797742, -102.87618016554548 -6.482050314290363, -102.79232172997033 -6.734618561215485 M-102.79232172997033 -6.734618561215485 C-102.64410847264574 -7.100708172315615, -102.49589521532114 -7.466797783415745, -102.32323364880834 -7.893275190886676 M-102.79232172997033 -6.734618561215485 C-102.67986425151571 -7.012390707215826, -102.5674067730611 -7.290162853216167, -102.32323364880834 -7.893275190886676 M-102.32323364880834 -7.893275190886676 C-102.19143949071511 -8.166948580110494, -102.0596453326219 -8.440621969334313, -101.7808739742735 -9.019496659696282 M-102.32323364880834 -7.893275190886676 C-102.10954855512773 -8.336996860043026, -101.89586346144712 -8.780718529199376, -101.7808739742735 -9.019496659696282 M-101.7808739742735 -9.019496659696282 C-101.60233363599298 -9.336513109483048, -101.42379329771245 -9.653529559269813, -101.16747137860425 -10.108655082055243 M-101.7808739742735 -9.019496659696282 C-101.6175806085085 -9.309440565858345, -101.4542872427435 -9.599384472020411, -101.16747137860425 -10.108655082055243 M-101.16747137860425 -10.108655082055243 C-100.93449166877727 -10.466574480161322, -100.70151195895029 -10.8244938782674, -100.48554646464063 -11.156274872382308 M-101.16747137860425 -10.108655082055243 C-100.90503502018272 -10.51182780262023, -100.6425986617612 -10.915000523185217, -100.48554646464063 -11.156274872382308 M-100.48554646464063 -11.156274872382308 C-100.19497408191249 -11.545615393549378, -99.90440169918436 -11.934955914716445, -99.73790140812659 -12.158051136245302 M-100.48554646464063 -11.156274872382308 C-100.32859427837272 -11.366576503342989, -100.17164209210482 -11.57687813430367, -99.73790140812659 -12.158051136245302 M-99.73790140812659 -12.158051136245302 C-99.53498003713747 -12.39641412516223, -99.33205866614834 -12.63477711407916, -98.92760844296866 -13.10986736009567 M-99.73790140812659 -12.158051136245302 C-99.50170657699255 -12.435499024761972, -99.2655117458585 -12.712946913278643, -98.92760844296866 -13.10986736009567 M-98.92760844296866 -13.10986736009567 C-98.59918974864111 -13.448986625665132, -98.27077105431354 -13.788105891234595, -98.05799723676799 -14.007812326905677 M-98.92760844296866 -13.10986736009567 C-98.74631823678176 -13.297064382186383, -98.56502803059486 -13.484261404277095, -98.05799723676799 -14.007812326905677 M-98.05799723676799 -14.007812326905677 C-97.78736032593437 -14.253597608664503, -97.51672341510076 -14.499382890423327, -97.1326412085019 -14.848196188198107 M-98.05799723676799 -14.007812326905677 C-97.80841311929582 -14.234478018760017, -97.55882900182367 -14.461143710614357, -97.1326412085019 -14.848196188198107 M-97.1326412085019 -14.848196188198107 C-96.79567239128137 -15.11691985281465, -96.45870357406085 -15.385643517431191, -96.15534284457871 -15.627565626425149 M-97.1326412085019 -14.848196188198107 C-96.93536077358819 -15.00552208518893, -96.7380803386745 -15.162847982179752, -96.15534284457871 -15.627565626425149 M-96.15534284457871 -15.627565626425149 C-95.85082608570187 -15.839983335099607, -95.54630932682502 -16.052401043774065, -95.13011807360571 -16.342718045390885 M-96.15534284457871 -15.627565626425149 C-95.76499252902781 -15.899857108560653, -95.3746422134769 -16.172148590696157, -95.13011807360571 -16.342718045390885 M-95.13011807360571 -16.342718045390885 C-94.91503745257717 -16.473101181812417, -94.69995683154862 -16.60348431823395, -94.06117976407678 -16.99071473040609 M-95.13011807360571 -16.342718045390885 C-94.90827095417079 -16.477203072910726, -94.68642383473585 -16.611688100430563, -94.06117976407678 -16.99071473040609 M-94.06117976407678 -16.99071473040609 C-93.73491359946834 -17.16092757949886, -93.40864743485992 -17.33114042859163, -92.9529204127924 -17.56889292409717 M-94.06117976407678 -16.99071473040609 C-93.73362559773403 -17.16159952917865, -93.40607143139128 -17.33248432795121, -92.9529204127924 -17.56889292409717 M-92.9529204127924 -17.56889292409717 C-92.59683411783035 -17.726521763952224, -92.24074782286831 -17.88415060380728, -91.80989409514781 -18.07487676824742 M-92.9529204127924 -17.56889292409717 C-92.63348789306394 -17.71029622495193, -92.31405537333548 -17.85169952580669, -91.80989409514781 -18.07487676824742 M-91.80989409514781 -18.07487676824742 C-91.45408774075274 -18.20581679570269, -91.09828138635767 -18.33675682315796, -90.63679775146062 -18.506587066708033 M-91.80989409514781 -18.07487676824742 C-91.5366932138235 -18.17541721801603, -91.26349233249918 -18.27595766778464, -90.63679775146062 -18.506587066708033 M-90.63679775146062 -18.506587066708033 C-90.2322914740411 -18.626642406549365, -89.8277851966216 -18.746697746390698, -89.43845188623541 -18.862249829261067 M-90.63679775146062 -18.506587066708033 C-90.1850651187882 -18.64065894089223, -89.7333324861158 -18.774730815076424, -89.43845188623541 -18.862249829261067 M-89.43845188623541 -18.862249829261067 C-89.11170611994329 -18.93682741820185, -88.78496035365117 -19.01140500714264, -88.21978075967677 -19.140403561325773 M-89.43845188623541 -18.862249829261067 C-89.01572152970463 -18.95873527456584, -88.59299117317384 -19.055220719870615, -88.21978075967677 -19.140403561325773 M-88.21978075967677 -19.140403561325773 C-87.87977244195118 -19.19537346933176, -87.5397641242256 -19.25034337733775, -86.98579215284788 -19.3399052695533 M-88.21978075967677 -19.140403561325773 C-87.81597434226192 -19.20568785132787, -87.41216792484707 -19.270972141329963, -86.98579215284788 -19.3399052695533 M-86.98579215284788 -19.3399052695533 C-86.71570308657343 -19.36596043694717, -86.44561402029896 -19.39201560434104, -85.7415567896239 -19.45993515863156 M-86.98579215284788 -19.3399052695533 C-86.6674809812846 -19.370612365448814, -86.34916980972132 -19.401319461344332, -85.7415567896239 -19.45993515863156 M-85.7415567896239 -19.45993515863156 C-85.47616118579418 -19.468445879085174, -85.21076558196445 -19.476956599538788, -84.4921875 -19.5 M-85.7415567896239 -19.45993515863156 C-85.43050594079335 -19.469909953929808, -85.11945509196279 -19.479884749228052, -84.4921875 -19.5 M-84.4921875 -19.5 C-84.4921875 -19.5, -84.4921875 -19.5, -84.4921875 -19.5 M-84.4921875 -19.5 C-84.4921875 -19.5, -84.4921875 -19.5, -84.4921875 -19.5" stroke="#ccc" stroke-width="1.3" fill="none" stroke-dasharray="0 0" style=""/></g><g class="label" style="" transform="translate(-91.6171875, -12)"><rect/><foreignObject width="183.234375" height="24"><div xmlns="http://www.w3.org/1999/xhtml" style="display: table-cell; white-space: nowrap; line-height: 1.5; max-width: 200px; text-align: center;"><span class="nodeLabel"><p>«device» navegador / curl</p></span></div></foreignObject></g></g></g></g></g><defs><filter id="my-svg-drop-shadow" height="130%" width="130%"><feDropShadow dx="4" dy="4" stdDeviation="0" flood-opacity="0.06" flood-color="#FFFFFF"/></filter></defs><defs><filter id="my-svg-drop-shadow-small" height="150%" width="150%"><feDropShadow dx="2" dy="2" stdDeviation="0" flood-opacity="0.06" flood-color="#FFFFFF"/></filter></defs><linearGradient id="my-svg-gradient" gradientUnits="objectBoundingBox" x1="0%" y1="0%" x2="100%" y2="0%"><stop offset="0%" stop-color="#cccccc" stop-opacity="1"/><stop offset="100%" stop-color="hsl(180, 0%, 18.3529411765%)" stop-opacity="1"/></linearGradient></svg>